Coordinates
version=1
nRows=17
nColumns=24
inDegrees=yes

Units are S.I. units (second, meters, Newtons, ...)
Angles are in degrees.

endheader
time	pelvis_tilt	pelvis_list	pelvis_rotation	pelvis_tx	pelvis_ty	pelvis_tz	hip_flexion_r	hip_adduction_r	hip_rotation_r	knee_angle_r	ankle_angle_r	subtalar_angle_r	mtp_angle_r	hip_flexion_l	hip_adduction_l	hip_rotation_l	knee_angle_l	ankle_angle_l	subtalar_angle_l	mtp_angle_l	lumbar_extension	lumbar_bending	lumbar_rotation
      0.44200000	      1.53977282	      3.87097816	      0.09718601	     -0.86349152	      1.00274523	      0.30868908	     22.24225923	     -2.97341828	    -10.28531589	     -1.17177244	     -0.56882080	     -7.73240684	     -0.32386673	    -13.09138401	      4.97553003	     -9.15528226	     -8.41894886	     13.12722554	     -5.13971905	     -0.48595127	    -14.03180286	     -4.26184545	     -3.42472650
      0.44616667	      1.84601667	      3.70006760	     -0.02774856	     -0.85724530	      1.00236276	      0.30898313	     21.98414061	     -2.71728962	     -9.95241497	     -1.84395784	     -0.71650215	     -8.00058697	     -0.65061278	    -13.58635204	      4.75561554	     -9.33421181	     -8.89788260	     13.34343277	     -4.96815178	     -1.31652117	    -14.32261496	     -3.98085770	     -3.14007444
      0.45033333	      1.94604911	      3.65320282	      0.03796772	     -0.85115600	      1.00175185	      0.30888957	     21.97177985	     -2.67559269	     -9.79517650	     -2.62954928	     -0.82000745	     -8.19415417	     -0.69120746	    -13.78050154	      4.64426710	     -9.16819992	     -9.50574945	     13.50300972	     -5.01142190	     -1.42319153	    -14.42015393	     -3.79824210	     -3.21336799
      0.45450000	      2.15967794	      3.52588010	      0.09415557	     -0.84494100	      1.00140266	      0.30889096	     21.76596180	     -2.52866270	     -9.61409316	     -3.30807489	     -1.13873165	     -8.64434291	     -0.80334487	    -14.09586317	      4.43238659	     -9.10080423	    -10.11527616	     13.56640195	     -4.95691754	     -1.74021328	    -14.63117719	     -3.52207024	     -3.41940034
      0.45866667	      2.31162003	      3.44223105	      0.12155531	     -0.83871194	      1.00094270	      0.30887049	     21.65617961	     -2.43123949	     -9.44014737	     -4.06911891	     -1.33535129	     -8.86183313	     -0.83863512	    -14.32684648	      4.28406059	     -8.99773057	    -10.77807115	     13.69902836	     -5.01083794	     -1.84582323	    -14.76228651	     -3.28784196	     -3.42971583
      0.46283333	      2.55015743	      3.28511726	      0.15049322	     -0.83238482	      1.00072104	      0.30899020	     21.37668700	     -2.23034621	     -9.23342111	     -4.69216414	     -1.77678217	     -9.41459528	     -0.91950347	    -14.62790830	      4.02992136	     -9.00799981	    -11.47361405	     13.66712024	     -4.91872238	     -2.10021034	    -14.98992538	     -2.99152904	     -3.53940637
      0.46700000	      2.73566719	      3.18435349	      0.17236236	     -0.82611511	      1.00042824	      0.30907883	     21.18345599	     -2.09596115	     -9.04762795	     -5.37572098	     -2.16362083	     -9.86864970	     -0.97636547	    -14.84106983	      3.84524153	     -8.95775047	    -12.22649887	     13.67615650	     -4.90122920	     -2.28468719	    -15.15731833	     -2.74867629	     -3.56572793
      0.47116667	      2.91205155	      3.06862545	      0.19693369	     -0.81977381	      1.00019175	      0.30920005	     20.96017987	     -1.93938018	     -8.84541246	     -5.98716273	     -2.62220100	    -10.35857000	     -1.02199976	    -15.01035071	      3.63508797	     -8.93530630	    -13.04558608	     13.61062327	     -4.90178702	     -2.43023395	    -15.31148641	     -2.49092514	     -3.60904246
      0.47533333	      3.12101684	      2.93041761	      0.16136209	     -0.81341384	      1.00002956	      0.30948407	     20.68926466	     -1.73107721	     -8.59145186	     -6.55764273	     -3.14293344	    -10.88449853	     -1.09005658	    -15.18824450	      3.39946288	     -9.02471462	    -13.92399298	     13.53866361	     -4.82049635	     -2.64835302	    -15.50370367	     -2.22420234	     -3.62812195
      0.47950000	      3.22493193	      2.86550905	      0.22129326	     -0.80715761	      0.99979945	      0.30953917	     20.53459287	     -1.64631679	     -8.44633980	     -7.13705010	     -3.67747649	    -11.35110791	     -1.11293753	    -15.18708336	      3.23555437	     -8.90045836	    -14.90087285	     13.39098147	     -4.93438218	     -2.69415541	    -15.59187636	     -2.02605857	     -3.61668178
      0.48366667	      3.39544820	      2.71496943	      0.19994738	     -0.80071764	      0.99972697	      0.30984731	     20.25500305	     -1.42306445	     -8.21121857	     -7.60664053	     -4.30505475	    -12.03030626	     -1.14987250	    -15.25113984	      2.97006125	     -9.00164388	    -15.89989306	     13.13386449	     -4.90701400	     -2.75403147	    -15.72261231	     -1.73071613	     -3.68073520
      0.48783333	      3.51413871	      2.61335077	      0.22082395	     -0.79439537	      0.99964171	      0.31006892	     20.03350687	     -1.27469959	     -8.02430557	     -8.06821784	     -4.94204664	    -12.60393533	     -1.17770476	    -15.18785046	      2.74933890	     -8.99569181	    -17.01940548	     12.86119484	     -4.97716914	     -2.76267432	    -15.81300281	     -1.50412402	     -3.64501330
      0.49200000	      3.64122318	      2.48630215	      0.16918898	     -0.78803557	      0.99958769	      0.31044940	     19.80736245	     -1.07339017	     -7.80051618	     -8.52267784	     -5.61681048	    -13.23862767	     -1.21202465	    -15.10798714	      2.50383240	     -9.11247634	    -18.19314400	     12.54669166	     -4.97932716	     -2.72288967	    -15.91591718	     -1.25057970	     -3.62303643
      0.49616667	      3.73043429	      2.39684715	      0.18574164	     -0.78174901	      0.99957093	      0.31064116	     19.61298598	     -0.95391852	     -7.68890151	     -8.95703414	     -6.31375966	    -13.72056187	     -1.23395145	    -14.92053068	      2.29340909	     -9.08795427	    -19.46436710	     12.17302930	     -5.12067655	     -2.68490210	    -15.98089640	     -1.02971212	     -3.54161240
      0.50033333	      3.85584263	      2.24409915	      0.07632020	     -0.77540637	      0.99959928	      0.31128395	     19.36323526	     -0.69233029	     -7.37777477	     -9.34520896	     -6.96064907	    -14.45048546	     -1.27944823	    -14.73837908	      1.99173088	     -9.34895040	    -20.81404459	     11.76517570	     -5.04929072	     -2.51009402	    -16.08030589	     -0.79021015	     -3.49710244
      0.50450000	      3.91964964	      2.11471073	      0.06832628	     -0.76906185	      0.99966117	      0.31150502	     19.17739420	     -0.53584471	     -7.31108497	     -9.75026159	     -7.60357228	    -14.85385930	     -1.30482362	    -14.44195040	      1.73136748	     -9.37070466	    -22.21920919	     11.21471716	     -5.25634059	     -2.42755222	    -16.10974104	     -0.52142270	     -3.34923455
      0.50866667	      3.99298993	      1.94659540	     -0.10787578	     -0.76274635	      0.99967274	      0.31234581	     18.99098415	     -0.24020273	     -6.97214793	    -10.14139499	     -8.21266084	    -15.53975086	     -1.38901248	    -14.10558692	      1.39497110	     -9.73226433	    -23.74277402	     10.69986234	     -5.17677364	     -2.00345104	    -16.14857594	     -0.29413684	     -3.19522161
